<svg width="24" height="24" viewBox="0 0 24 24" fill="none" xmlns="http://www.w3.org/2000/svg">
<path d="M22 18.8333C22 18.281 21.5523 17.8333 21 17.8333H16.9748C15.151 17.8333 13.6667 16.349 13.6667 14.5248C13.6667 12.651 15.151 11.1667 16.9748 11.1667H21C21.5523 11.1667 22 10.719 22 10.1667V8C22 7.44772 21.5523 7 21 7H3C2.44772 7 2 7.44772 2 8V21C2 21.5523 2.44772 22 3 22H21C21.5523 22 22 21.5523 22 21V18.8333Z" fill="white"/>
<path d="M15 14.4777C15 15.3372 15.7733 16 16.7235 16H21C21.5523 16 22 15.5523 22 15V14C22 13.4477 21.5523 13 21 13H16.7235C15.7733 13 15 13.6628 15 14.4777Z" fill="white"/>
<path d="M19 3.30925C19 2.64988 18.373 2.17099 17.7369 2.34449L8 5H18C18.5523 5 19 4.55228 19 4V3.30925Z" fill="white"/>
</svg>
