<svg width="24" height="24" viewBox="0 0 24 24" fill="none" xmlns="http://www.w3.org/2000/svg">
<path d="M8.2666 3C7.67781 3 7.19995 3.504 7.19995 4.125V16.921C9.34818 16.9264 11.4961 16.9331 13.6441 16.8983C13.9017 16.8918 14.1945 17.0448 14.25 17.3314C14.1796 18.3188 14.6369 19.3347 15.4294 19.8775C15.9131 20.2808 16.5537 20.2364 17.1254 20.3863C17.3454 20.4735 17.4627 20.6906 17.484 20.9227C18.9227 20.5922 20 19.2416 20 17.6253V4.12528C20 3.50428 19.5221 3.00028 18.9334 3.00028H8.26686L8.2666 3ZM9.86657 6.375H11.9999C12.2943 6.375 12.5332 6.627 12.5332 6.9375V9.1875C12.5332 9.498 12.2943 9.75 11.9999 9.75H9.86657C9.57217 9.75 9.33324 9.498 9.33324 9.1875V6.9375C9.33324 6.627 9.57217 6.375 9.86657 6.375ZM14.1332 7.5H17.3331C17.6275 7.5 17.8664 7.752 17.8664 8.0625C17.8664 8.373 17.6275 8.625 17.3331 8.625H14.1332C13.8388 8.625 13.5998 8.373 13.5998 8.0625C13.5998 7.752 13.8388 7.5 14.1332 7.5ZM9.86657 10.875H11.9999C12.2943 10.875 12.5332 11.127 12.5332 11.4375V13.6875C12.5332 13.998 12.2943 14.25 11.9999 14.25H9.86657C9.57217 14.25 9.33324 13.998 9.33324 13.6875V11.4375C9.33324 11.127 9.57217 10.875 9.86657 10.875ZM14.1332 12H17.3331C17.6275 12 17.8664 12.252 17.8664 12.5625C17.8664 12.873 17.6275 13.125 17.3331 13.125H14.1332C13.8388 13.125 13.5998 12.873 13.5998 12.5625C13.5998 12.252 13.8388 12 14.1332 12ZM4 17.625C4 19.4891 5.43251 21 7.19995 21H16.7998C15.0323 21 13.5998 19.4891 13.5998 17.625H4Z" fill="white"/>
</svg>
